<?xml version="1.0" encoding="UTF-8"?>
<svg version="1.1" xmlns="http://www.w3.org/2000/svg" width="512" height="512">
<path d="M0 0 C18.27713142 16.57062084 29.55946462 38.89263877 30.94555664 63.59912109 C31.62753357 86.58996983 24.60281824 107.92072528 9.72290039 125.63037109 C9.14024414 126.35869141 8.55758789 127.08701172 7.95727539 127.83740234 C-6.71420554 145.43701497 -29.75325156 156.51118522 -52.27709961 159.63037109 C-54.54389117 159.82974473 -56.81230673 160.01125636 -59.08178711 160.17724609 C-60.24436035 160.26329102 -61.40693359 160.34933594 -62.60473633 160.43798828 C-63.48661621 160.50147461 -64.36849609 160.56496094 -65.27709961 160.63037109 C-64.52952393 161.04174316 -63.78194824 161.45311523 -63.01171875 161.87695312 C-53.24450448 167.25357913 -53.24450448 167.25357913 -48.40063477 169.93432617 C-47.06128644 170.67546863 -45.7219309 171.41659807 -44.38256836 172.15771484 C-43.7079657 172.53106461 -43.03336304 172.90441437 -42.33831787 173.28907776 C-38.45943777 175.43308238 -34.57206637 177.56016727 -30.67362976 179.668396 C-27.82836675 181.20950811 -24.99123163 182.76550052 -22.15209961 184.31787109 C-21.09901611 184.88070801 -20.04593262 185.44354492 -18.9609375 186.0234375 C-17.99019287 186.55759277 -17.01944824 187.09174805 -16.01928711 187.64208984 C-15.17221191 188.10059326 -14.32513672 188.55909668 -13.45239258 189.03149414 C-10.76635385 191.00577783 -9.74193993 192.62957283 -8.27709961 195.63037109 C-7.89957619 198.91389561 -7.89957619 198.91389561 -7.89614868 202.71864319 C-7.89146871 203.42090308 -7.88678874 204.12316297 -7.88196695 204.84670347 C-7.87002471 207.19413842 -7.87947112 209.5409887 -7.88891602 211.88842773 C-7.8848497 213.57411031 -7.87950749 215.25979022 -7.87298584 216.94546509 C-7.85930619 221.52234148 -7.86461551 226.09901502 -7.8741231 230.67589498 C-7.88172504 235.47358698 -7.87467178 240.27126177 -7.8699646 245.06895447 C-7.86450492 253.13332224 -7.87170037 261.19760763 -7.88598633 269.26196289 C-7.90227452 278.56350564 -7.89705312 287.86485071 -7.88050711 297.16638857 C-7.86685194 305.16492935 -7.86499339 313.16341091 -7.87282312 321.16195959 C-7.87748253 325.93318663 -7.87817322 330.7043211 -7.86821365 335.47554207 C-7.85948888 339.9694864 -7.86566562 344.46317873 -7.88289642 348.9570961 C-7.88683371 350.59847662 -7.88577506 352.23987867 -7.87910843 353.88125038 C-7.82288252 369.1426919 -9.59607046 381.92156682 -20.12475586 393.69677734 C-27.46015198 400.67067551 -36.92825519 404.74431874 -47.01837826 404.76738548 C-48.78655577 404.7749973 -48.78655577 404.7749973 -50.59045404 404.78276289 C-51.88664165 404.78326064 -53.18282926 404.7837584 -54.51829529 404.78427124 C-55.90824302 404.78828696 -57.29818958 404.79272537 -58.68813473 404.7975508 C-62.51177381 404.80950913 -66.33540028 404.81516298 -70.1590544 404.81973195 C-74.28114436 404.82569053 -78.40321927 404.83729942 -82.52529907 404.84802246 C-92.47998118 404.87253569 -102.43466826 404.8871695 -112.38937125 404.90008253 C-115.1999731 404.90379444 -118.01057446 404.90776764 -120.82117581 404.91183519 C-138.26897741 404.93706531 -155.71677979 404.95912156 -173.1645956 404.97156334 C-177.20510804 404.97449309 -181.24562044 404.97745475 -185.28613281 404.98046875 C-186.79252824 404.98158783 -186.79252824 404.98158783 -188.3293559 404.98272951 C-204.61172396 404.99539358 -220.89398308 405.02863203 -237.17630016 405.07027058 C-253.88594505 405.11265254 -270.59553408 405.1362538 -287.30523258 405.1414839 C-296.69012427 405.14490164 -306.07484551 405.15669988 -315.45968437 405.18958664 C-323.44879806 405.21753659 -331.43770636 405.22860865 -339.42686515 405.21739118 C-343.50453809 405.21219206 -347.58178054 405.21517203 -351.6593914 405.23985672 C-355.39080608 405.26225774 -359.12147876 405.2616818 -362.85290564 405.24265285 C-364.84530651 405.23850523 -366.83771123 405.25906564 -368.83000177 405.28043973 C-377.33875656 405.20429736 -377.33875656 405.20429736 -381.573349 402.61425972 C-383.75923101 398.78598319 -383.97048578 395.57495992 -383.9052887 391.28015137 C-383.91238308 390.44227884 -383.91947747 389.60440631 -383.92678684 388.7411437 C-383.94438252 385.93487201 -383.92625439 383.12998249 -383.90820312 380.32373047 C-383.91334134 378.31142038 -383.92062188 376.29911478 -383.92988586 374.28681946 C-383.94842035 368.82190898 -383.93544816 363.35748558 -383.91579556 357.89259529 C-383.89942479 352.17607163 -383.90821977 346.45957921 -383.91331482 340.74304199 C-383.91783752 331.14274301 -383.90195487 321.54263875 -383.87402344 311.94238281 C-383.84197085 300.83998151 -383.84198676 289.73793144 -383.85923821 278.6355052 C-383.87509678 267.95941732 -383.86837401 257.28345833 -383.85130119 246.6073761 C-383.84442496 242.06200229 -383.84546905 237.51673162 -383.85284615 232.97135925 C-383.86050192 227.61966286 -383.8484057 222.26836664 -383.82099724 216.91673851 C-383.81410494 214.95152665 -383.81402445 212.98627747 -383.82121277 211.02106667 C-383.82988869 208.34046003 -383.81398328 205.66109365 -383.79176331 202.98059082 C-383.80000407 202.20092123 -383.80824484 201.42125163 -383.81673533 200.61795568 C-383.74071253 195.65673727 -382.82246637 193.10837115 -379.27709961 189.63037109 C-376.60522461 187.77197266 -376.60522461 187.77197266 -373.52709961 186.02099609 C-372.96563232 185.69721985 -372.40416504 185.3734436 -371.82568359 185.03985596 C-370.61453553 184.34264738 -369.40081777 183.64988723 -368.18481445 182.96118164 C-364.89134141 181.09527363 -361.61706672 179.19607861 -358.33959961 177.30224609 C-357.66525879 176.91383545 -356.99091797 176.5254248 -356.29614258 176.12524414 C-349.55621189 172.2354566 -342.91335372 168.19362473 -336.27709961 164.13037109 C-326.83583426 158.36041339 -317.33620702 152.7028244 -307.77709961 147.13037109 C-297.7011223 141.25559482 -287.69556257 135.27828537 -277.73950195 129.20263672 C-267.62743991 123.03333809 -257.45669469 116.96809621 -247.26107788 110.9380188 C-239.9192802 106.59478089 -232.59159441 102.23142284 -225.30834961 97.79052734 C-224.66857178 97.40057587 -224.02879395 97.01062439 -223.36962891 96.6088562 C-220.34599969 94.76442494 -217.32527524 92.91543334 -214.30834961 91.06005859 C-211.31121128 89.22647276 -208.30249477 87.416882 -205.27709961 85.63037109 C-204.50495117 85.17130371 -203.73280273 84.71223633 -202.93725586 84.23925781 C-198.5023627 81.78392826 -196.133259 81.29334681 -191.27709961 82.63037109 C-188.5382876 84.07187428 -186.01890204 85.78579493 -183.47241211 87.54052734 C-182.74843231 88.02742538 -182.02445251 88.51432343 -181.27853394 89.01597595 C-178.97967507 90.56527038 -176.69089802 92.12876264 -174.40209961 93.69287109 C-172.84024414 94.74916327 -171.27775056 95.8045126 -169.71459961 96.85888672 C-165.89462333 99.43852059 -162.08362019 102.03092739 -158.27709961 104.63037109 C-158.27709961 101.32987287 -159.02705633 99.2846871 -160.15209961 96.19287109 C-167.75452749 73.60125917 -165.43461003 49.0740042 -155.27709961 27.63037109 C-143.03881738 4.1751925 -121.94740162 -12.09133157 -97.02661133 -20.13208008 C-63.55367645 -30.37957568 -26.52287472 -22.99128601 0 0 Z " fill="#474D57" transform="translate(432.277099609375,64.36962890625)"/>
<path d="M0 0 C5.41351898 1.57278802 10.12306293 4.03483935 15.0625 6.6875 C16.32006104 7.35036011 16.32006104 7.35036011 17.60302734 8.02661133 C21.38733311 10.02821262 25.14046556 12.05493545 28.81640625 14.25 C29.90824219 14.889375 31.00007812 15.52875 32.125 16.1875 C33.05570313 16.75855469 33.98640625 17.32960938 34.9453125 17.91796875 C39.97569419 19.6998303 44.37137462 19.05329853 49.29150391 17.08178711 C51.65998348 15.92081234 53.9538666 14.67296934 56.25 13.375 C57.07121338 12.92930664 57.89242676 12.48361328 58.73852539 12.02441406 C62.51475076 9.96941575 66.25620434 7.85841562 69.98046875 5.7109375 C71.12128906 5.06382812 72.26210938 4.41671875 73.4375 3.75 C74.92056641 2.87601562 74.92056641 2.87601562 76.43359375 1.984375 C79 1 79 1 80.93212891 1.73388672 C83.1127339 3.06902456 84.8075483 4.50460278 86.65234375 6.2734375 C87.33949463 6.92707275 88.02664551 7.58070801 88.73461914 8.25415039 C89.46156982 8.95403076 90.18852051 9.65391113 90.9375 10.375 C92.4760709 11.84036009 94.0151375 13.30519987 95.5546875 14.76953125 C96.31233398 15.49221191 97.06998047 16.21489258 97.85058594 16.95947266 C100.72734359 19.69049724 103.63952532 22.38113564 106.5625 25.0625 C111.40281254 29.51232971 116.20774904 33.99846379 121 38.5 C126.35537177 43.52987909 131.73138897 48.5355963 137.13671875 53.51171875 C141.9176931 57.91586754 146.6678447 62.35256617 151.41650391 66.79150391 C155.92924247 71.00733652 160.46282505 75.19976244 165.00683594 79.38183594 C170.1400686 84.11369182 175.22360688 88.89803358 180.30444336 93.68603516 C184.64401184 97.76451699 189.04460981 101.73732882 193.59375 105.58203125 C195 107 195 107 195 109 C191.97436951 110.0085435 189.96822432 110.12432897 186.805089 110.12304783 C185.18157543 110.1260344 185.18157543 110.1260344 183.52526361 110.12908131 C181.73491686 110.12471205 181.73491686 110.12471205 179.90840149 110.12025452 C178.64402054 110.12110894 177.37963958 110.12196337 176.07694405 110.12284368 C172.56062441 110.12508527 169.04433509 110.12107193 165.52801931 110.11606562 C161.73867058 110.11175651 157.94932363 110.11320787 154.15997314 110.1139679 C147.59240118 110.11449284 141.02483914 110.11134914 134.45726967 110.10573006 C124.96160832 110.09761104 115.46595179 110.09499942 105.97028735 110.09374207 C90.5650684 110.09155218 75.15985474 110.08489381 59.75463867 110.07543945 C44.78784207 110.0662637 29.8210469 110.05918366 14.85424805 110.05493164 C13.47095785 110.05453756 13.47095785 110.05453756 12.0597224 110.05413551 C7.4334563 110.05283049 2.80719018 110.05156678 -1.81907594 110.05032361 C-40.212721 110.03995297 -78.60636015 110.02233637 -117 110 C-114.57848718 106.92758905 -112.25971095 104.18460521 -109.26171875 101.66796875 C-104.98607428 98.00920339 -100.8940044 94.18535308 -96.8125 90.3125 C-91.71297514 85.49261397 -86.60343727 80.68618535 -81.4375 75.9375 C-76.59768562 71.4871222 -71.79225778 67.00154262 -67 62.5 C-61.64462823 57.47012091 -56.26861103 52.4644037 -50.86328125 47.48828125 C-46.72548995 43.67662128 -42.60983146 39.84177621 -38.5 36 C-33.86906913 31.67111201 -29.22624384 27.35601343 -24.5625 23.0625 C-19.45520854 18.35881697 -14.37831503 13.62331571 -9.3125 8.875 C-8.26848022 7.89672241 -8.26848022 7.89672241 -7.20336914 6.89868164 C-3.56496562 3.48738341 -3.56496562 3.48738341 0 0 Z " fill="#F6E18C" transform="translate(195,343)"/>
<path d="M0 0 C2.23480547 1.66238161 4.29537415 3.40285237 6.3515625 5.28125 C7.18171875 6.03148438 8.011875 6.78171875 8.8671875 7.5546875 C21.81342684 19.84198652 30.86993812 36.47793672 31.63671875 54.51171875 C31.87485908 64.40598316 31.83046639 73.89875164 28.3515625 83.28125 C27.74828125 84.96734375 27.74828125 84.96734375 27.1328125 86.6875 C19.01089425 107.44351331 3.34856173 121.32155554 -16.6484375 130.28125 C-32.94317003 137.16475889 -52.38194765 139.28641204 -69.46875 133.9375 C-80.08883956 131.74563876 -89.85955519 134.4933363 -100.0859375 137.21875 C-101.54330399 137.59692225 -103.00098526 137.97388354 -104.45898438 138.34960938 C-107.11855588 139.03677604 -109.77543603 139.73215961 -112.43139648 140.43334961 C-114.83351323 141.06646424 -117.23638282 141.68756565 -119.6484375 142.28125 C-118.91391693 135.53139256 -117.56975131 129.04112865 -116.02148438 122.43554688 C-113.86184412 112.78991862 -113.86184412 112.78991862 -116.00390625 103.41796875 C-116.60847656 102.60972656 -117.21304687 101.80148438 -117.8359375 100.96875 C-121.72085934 95.33365126 -124.35631622 89.72101932 -126.6484375 83.28125 C-127.12990234 81.96833984 -127.12990234 81.96833984 -127.62109375 80.62890625 C-133.15636381 62.68433307 -130.20687161 43.38342474 -121.82958984 27.00390625 C-118.95323438 21.61285377 -115.78106688 16.8050336 -111.6484375 12.28125 C-110.89820313 11.45109375 -110.14796875 10.6209375 -109.375 9.765625 C-103.7125488 3.79950922 -97.80537109 -0.69103846 -90.6484375 -4.71875 C-89.84792969 -5.18023437 -89.04742187 -5.64171875 -88.22265625 -6.1171875 C-59.97351006 -21.3745005 -26.17139698 -16.98438742 0 0 Z " fill="#F1767A" transform="translate(414.6484375,71.71875)"/>
<path d="M0 0 C5.0239547 1.48798202 8.89739596 4.29532795 13.19677734 7.23657227 C14.12052155 7.85664658 15.04426575 8.47672089 15.9960022 9.11558533 C18.93677212 11.09285367 21.86756816 13.08436584 24.79833984 15.07641602 C26.7937924 16.42176858 28.78987925 17.76618085 30.78662109 19.10961914 C35.67293247 22.40018722 40.55114009 25.70249448 45.42333984 29.01391602 C44.91627991 33.29334406 44.41257591 37.50116066 43.45068359 41.70532227 C43.2734375 42.50518555 43.09619141 43.30504883 42.91357422 44.12915039 C42.54405503 45.76521943 42.17164206 47.40063749 41.79638672 49.03540039 C40.75652459 53.75477467 39.93914734 58.15360397 40.42333984 63.01391602 C41.64149744 64.75917422 41.64149744 64.75917422 43.42333984 66.01391602 C50.97171347 66.72417339 57.70222423 65.00650976 64.98583984 63.13891602 C66.07058594 62.86950195 67.15533203 62.60008789 68.27294922 62.32250977 C74.03308776 60.89118225 74.03308776 60.89118225 79.77050781 59.37231445 C88.31442045 57.07039074 92.67471205 58.20893769 100.17333984 62.38891602 C101.011875 62.84371338 101.85041016 63.29851074 102.71435547 63.76708984 C105.29144525 65.16962884 107.85819511 66.58966996 110.42333984 68.01391602 C111.85547079 68.80196858 113.28775378 69.58974493 114.72021484 70.37719727 C118.39039044 72.40231337 122.04870971 74.44816508 125.70605469 76.49633789 C128.9271551 78.29529208 132.15343694 80.08483241 135.38037109 81.87329102 C136.60693901 82.55337564 137.83350149 83.23347008 139.06005859 83.91357422 C140.88539624 84.92565487 142.71082825 85.93756274 144.53662109 86.94882202 C146.24540896 87.89548127 147.95352591 88.84335125 149.66162109 89.79125977 C151.14722534 90.61484985 151.14722534 90.61484985 152.6628418 91.45507812 C153.57380615 91.96949463 154.48477051 92.48391113 155.42333984 93.01391602 C156.83909302 93.79424194 156.83909302 93.79424194 158.28344727 94.59033203 C159.34269409 95.2950061 159.34269409 95.2950061 160.42333984 96.01391602 C160.42333984 96.67391602 160.42333984 97.33391602 160.42333984 98.01391602 C159.42069092 98.52776855 158.41804199 99.04162109 157.38500977 99.57104492 C153.6139296 101.50418416 149.84381787 103.43920578 146.07397461 105.37475586 C144.45183649 106.20728943 142.82944691 107.03933327 141.20678711 107.87084961 C138.85510656 109.0760587 136.50420689 110.28277081 134.15380859 111.49047852 C133.39292938 111.88124573 132.63205017 112.27201294 131.84811401 112.67462158 C126.63583839 115.3617592 121.48814305 118.14014812 116.38549805 121.03100586 C114.42333984 122.01391602 114.42333984 122.01391602 112.42333984 122.01391602 C112.40146606 120.90149536 112.40146606 120.90149536 112.37915039 119.76660156 C112.30474527 116.4110097 112.20805978 113.05642108 112.11083984 109.70141602 C112.08828125 108.53416992 112.06572266 107.36692383 112.04248047 106.16430664 C111.98930664 104.48691406 111.98930664 104.48691406 111.93505859 102.77563477 C111.89578247 101.22815552 111.89578247 101.22815552 111.85571289 99.64941406 C111.35532784 96.59935384 110.79711975 95.89890888 108.42333984 94.01391602 C105.44390037 93.71886133 102.67342321 93.60947337 99.69274902 93.63296509 C98.33838155 93.62594513 98.33838155 93.62594513 96.95665312 93.61878335 C93.91870838 93.60677807 90.88121014 93.6163122 87.84326172 93.62573242 C85.67037186 93.62166918 83.49748407 93.6163287 81.32460022 93.60980225 C75.41355666 93.59609343 69.5026697 93.60144203 63.59162331 93.6109395 C57.41504102 93.61851764 51.23847244 93.61149564 45.06188965 93.60678101 C34.68804509 93.60131807 24.31426454 93.6085292 13.94042969 93.62280273 C1.93490018 93.63913025 -10.07045119 93.63384213 -22.07597971 93.61732352 C-32.37070734 93.603724 -42.66538888 93.60178148 -52.96012259 93.60963953 C-59.11439616 93.61432448 -65.26859782 93.61491833 -71.42286682 93.60503006 C-77.20781699 93.59638499 -82.9925695 93.60233727 -88.77749825 93.61971283 C-90.90481296 93.62369085 -93.03214423 93.6225213 -95.15945244 93.61592484 C-98.05521852 93.60777115 -100.95034445 93.61795597 -103.84606934 93.63296509 C-104.69518403 93.62627292 -105.54429872 93.61958076 -106.41914415 93.6126858 C-110.65002181 93.5306611 -110.65002181 93.5306611 -114.28789949 95.38426721 C-116.11104487 97.68965003 -116.00790035 99.42481105 -116.08837891 102.33813477 C-116.12382813 103.36616211 -116.15927734 104.39418945 -116.19580078 105.45336914 C-116.21835938 106.52522461 -116.24091797 107.59708008 -116.26416016 108.70141602 C-116.29832031 109.78487305 -116.33248047 110.86833008 -116.36767578 111.98461914 C-116.45020575 114.66094822 -116.51933953 117.3369476 -116.57666016 120.01391602 C-121.58639478 118.51192672 -126.02495007 116.38896312 -130.64306641 113.98657227 C-131.39957993 113.59698837 -132.15609344 113.20740448 -132.93553162 112.80601501 C-134.52748234 111.98516559 -136.11837239 111.16225618 -137.70825195 110.33740234 C-140.13272548 109.07975388 -142.56042761 107.82852918 -144.98876953 106.57836914 C-146.54039499 105.7773109 -148.09183367 104.97589074 -149.64306641 104.17407227 C-150.36401993 103.8021022 -151.08497345 103.43013214 -151.82777405 103.04689026 C-155.48642774 101.14664333 -159.06817936 99.18465227 -162.57666016 97.01391602 C-158.92752455 93.95800432 -155.17568404 91.47269221 -151.07275391 89.06469727 C-150.1327932 88.51032234 -150.1327932 88.51032234 -149.17384338 87.94474792 C-147.82591348 87.15010593 -146.4769998 86.35713074 -145.12719727 85.56567383 C-141.49992002 83.43834173 -137.88033017 81.2980028 -134.26025391 79.15844727 C-133.52447113 78.72392242 -132.78868835 78.28939758 -132.03060913 77.84170532 C-125.1774784 73.78937732 -118.37269298 69.66122347 -111.57666016 65.51391602 C-100.94416095 59.02937404 -90.25297294 52.64913081 -79.53564453 46.3059082 C-70.17982381 40.76686765 -60.85959672 35.17421883 -51.57666016 29.51391602 C-39.70441122 22.27486582 -27.76268513 15.15770564 -15.79345703 8.08032227 C-15.13322037 7.68961044 -14.4729837 7.29889862 -13.79273987 6.89634705 C-12.55585227 6.16456797 -11.31852323 5.43353431 -10.08067322 4.7033844 C-2.14936674 0.01160829 -2.14936674 0.01160829 0 0 Z " fill="#E4C9A4" transform="translate(236.57666015625,164.986083984375)"/>
<path d="M0 0 C0.07010596 20.47972323 0.12299597 40.95942208 0.15543652 61.43924046 C0.17090012 70.94854813 0.19197998 80.45778122 0.22631836 89.96704102 C0.2562362 98.25608573 0.27557869 106.54507641 0.28226548 114.83417362 C0.2861737 119.22249505 0.29534802 123.61066193 0.31719017 127.99893379 C0.33759299 132.13161934 0.34382614 136.26408703 0.33932304 140.39681816 C0.34014655 141.91130635 0.34608964 143.42580203 0.35761642 144.94024658 C0.37262057 147.0137382 0.3689256 149.08641551 0.36076355 151.15992737 C0.36352893 152.31862115 0.36629431 153.47731493 0.36914349 154.67112064 C-0.07362167 158.66390894 -1.26578384 161.39354085 -3 165 C-7.12177332 162.77201442 -10.06612103 160.11383118 -13.3125 156.75 C-17.03612447 152.90134873 -20.86834605 149.32871076 -24.91821289 145.82568359 C-28.38412599 142.78615056 -31.71786621 139.6091626 -35.0625 136.4375 C-36.55835778 135.02448973 -38.05445617 133.61173415 -39.55078125 132.19921875 C-40.66767334 131.14420166 -40.66767334 131.14420166 -41.80712891 130.06787109 C-45.11179118 126.95158413 -48.42893599 123.84879149 -51.75 120.75 C-52.36633301 120.17491699 -52.98266602 119.59983398 -53.61767578 119.00732422 C-57.54580039 115.34614941 -61.48782013 111.70039509 -65.4375 108.0625 C-71.64358539 102.34631836 -77.79742478 96.57527305 -83.94921875 90.80078125 C-87.85708262 87.13276709 -91.77059276 83.47085377 -95.6875 79.8125 C-96.29650146 79.24257324 -96.90550293 78.67264648 -97.53295898 78.08544922 C-100.61089634 75.20952593 -103.70440668 72.3535271 -106.828125 69.52734375 C-107.43567627 68.97522217 -108.04322754 68.42310059 -108.66918945 67.85424805 C-109.82235643 66.80807102 -110.97957353 65.76633588 -112.14135742 64.72973633 C-113.4651839 63.52661969 -114.73828327 62.26809979 -116 61 C-116 60.34 -116 59.68 -116 59 C-115.49364014 58.74943848 -114.98728027 58.49887695 -114.46557617 58.24072266 C-104.60408273 53.35374816 -94.78654937 48.40126916 -85.06323242 43.24462891 C-76.90945825 38.9302972 -68.70422471 34.71728403 -60.5 30.5 C-47.16236853 23.6421243 -47.16236853 23.6421243 -33.875 16.6875 C-33.16802979 16.31447754 -32.46105957 15.94145508 -31.73266602 15.55712891 C-28.49431784 13.84737552 -25.25687876 12.13591046 -22.02001953 10.42333984 C-18.82793661 8.73656169 -15.63294383 7.05540089 -12.4375 5.375 C-11.42993652 4.84092529 -10.42237305 4.30685059 -9.38427734 3.7565918 C-8.45180176 3.26715088 -7.51932617 2.77770996 -6.55859375 2.2734375 C-5.31033813 1.61480713 -5.31033813 1.61480713 -4.03686523 0.94287109 C-2 0 -2 0 0 0 Z " fill="#F6E18C" transform="translate(407,276)"/>
<path d="M0 0 C4.44482409 1.48160803 8.03213259 2.91952111 12.12109375 5.0546875 C13.29172363 5.66320557 14.46235352 6.27172363 15.66845703 6.89868164 C16.92484832 7.55737122 18.18119489 8.21614607 19.4375 8.875 C20.74572485 9.55695484 22.05415851 10.23850925 23.36279297 10.91967773 C26.64003457 12.62675721 29.91470177 14.33870694 33.1885376 16.05230713 C35.81575396 17.42677354 38.44495326 18.7974271 41.07421875 20.16796875 C44.78216459 22.10111891 48.48902512 24.03632865 52.1953125 25.97265625 C58.62337238 29.32830266 65.06169517 32.66406481 71.5 36 C73.76434553 37.17443557 76.02866859 38.34891446 78.29296875 39.5234375 C82.73065106 41.82503038 87.17112303 44.12112202 91.61328125 46.4140625 C93.67975438 47.48424587 95.74616365 48.55455256 97.8125 49.625 C99.22595703 50.35203125 99.22595703 50.35203125 100.66796875 51.09375 C105.30786446 53.50214161 109.72421958 55.98928519 114 59 C109.62561297 64.29170763 104.97068703 69.02430788 99.9375 73.6875 C99.18799072 74.38738037 98.43848145 75.08726074 97.66625977 75.80834961 C92.75623033 80.38773029 87.82606738 84.94561464 82.88452148 89.4909668 C78.56434433 93.46713604 74.27947867 97.48009876 70 101.5 C64.66890182 106.50742662 59.31565198 111.48883895 53.93359375 116.44140625 C49.59852098 120.43563792 45.29653955 124.46438185 41 128.5 C36.16459682 133.04147863 31.3174585 137.56891565 26.4375 142.0625 C21.56831578 146.5464688 16.71590866 151.04801022 11.875 155.5625 C11.2348999 156.15877197 10.5947998 156.75504395 9.93530273 157.36938477 C9.33532471 157.92940186 8.73534668 158.48941895 8.1171875 159.06640625 C7.58722168 159.56084229 7.05725586 160.05527832 6.51123047 160.56469727 C5.45165201 161.57104003 4.42681363 162.61463764 3.43017578 163.68334961 C2 165 2 165 0 165 C0 110.55 0 56.1 0 0 Z " fill="#F6E18C" transform="translate(66,276)"/>
<path d="M0 0 C65.01 0 130.02 0 197 0 C197 7.26 197 14.52 197 22 C183.99055968 28.85768947 170.96326392 35.67985981 157.921875 42.4765625 C155.07227512 43.96231645 152.22348267 45.44960542 149.375 46.9375 C147.50001188 47.91668942 145.62501186 48.89585605 143.75 49.875 C142.82638672 50.35743164 141.90277344 50.83986328 140.95117188 51.33691406 C135.52545572 54.16844809 130.09366369 56.98789361 124.65625 59.796875 C123.41177705 60.44025376 122.16731086 61.08364562 120.92285156 61.72705078 C118.51435494 62.97219659 116.10467744 64.21496222 113.69433594 65.45654297 C112.60411133 66.02002441 111.51388672 66.58350586 110.390625 67.1640625 C109.42157227 67.66373535 108.45251953 68.1634082 107.45410156 68.67822266 C104.85747874 70.02725797 104.85747874 70.02725797 102 72 C98.39229923 71.64612409 95.60430379 70.46308313 92.4296875 68.76953125 C91.54732422 68.30353516 90.66496094 67.83753906 89.75585938 67.35742188 C88.80517578 66.84759766 87.85449219 66.33777344 86.875 65.8125 C84.79975982 64.71431324 82.72422687 63.61667959 80.6484375 62.51953125 C79.56143555 61.94283691 78.47443359 61.36614258 77.35449219 60.77197266 C71.75412779 57.81364334 66.12606075 54.90907129 60.5 52 C50.22221513 46.67577764 39.95421161 41.33317022 29.6953125 35.97265625 C25.6307964 33.8492847 21.56245793 31.73341335 17.4921875 29.62109375 C16.42709961 29.06760254 15.36201172 28.51411133 14.26464844 27.94384766 C12.20878044 26.8756276 10.15216717 25.80884034 8.09472656 24.74365234 C7.17916992 24.26750488 6.26361328 23.79135742 5.3203125 23.30078125 C4.10239014 22.66910034 4.10239014 22.66910034 2.85986328 22.0246582 C1 21 1 21 0 20 C0 13.4 0 6.8 0 0 Z " fill="#FEFEFE" transform="translate(136,274)"/>
<path d="M0 0 C3.73273207 3.3550778 5.27804237 5.60575372 5.63110352 10.64086914 C5.6571741 12.43877598 5.65493509 14.2372488 5.62890625 16.03515625 C5.63131821 16.99143417 5.63373016 17.9477121 5.63621521 18.93296814 C5.63523876 20.94762331 5.62189365 22.96230598 5.59692383 24.97680664 C5.56256772 28.05642938 5.57628756 31.13318816 5.59570312 34.21289062 C5.58880549 36.17449135 5.57913386 38.13608469 5.56640625 40.09765625 C5.57136612 41.01547379 5.57632599 41.93329132 5.58143616 42.87892151 C5.50491497 47.04009257 5.34784 49.41678375 3.17944336 53.05249023 C0.12649203 55.78055036 -1.94088033 56.07121263 -6 56 C-8.68334961 54.66796875 -8.68334961 54.66796875 -11 52 C-11.75124999 48.42204059 -11.67642917 44.89444678 -11.62890625 41.25 C-11.63131821 40.19973633 -11.63373016 39.14947266 -11.63621521 38.06738281 C-11.63523631 35.84826886 -11.62183265 33.62913062 -11.59692383 31.41015625 C-11.56262293 28.01217752 -11.57626179 24.61679972 -11.59570312 21.21875 C-11.58880461 19.06248892 -11.57913219 16.90623456 -11.56640625 14.75 C-11.57136612 13.73325195 -11.57632599 12.71650391 -11.58143616 11.66894531 C-11.46452168 4.67177173 -11.46452168 4.67177173 -9.17944336 1.3671875 C-5.87236475 -0.70737732 -3.81615125 -0.66950022 0 0 Z " fill="#FEFAFA" transform="translate(369,90)"/>
<path d="M0 0 C1.9375 1.0625 1.9375 1.0625 3 3 C3.75471698 9.79245283 3.75471698 9.79245283 1.4375 13.5 C-1.94888329 15.58392818 -4.09385318 15.55802097 -8 15 C-10.4375 13.5 -10.4375 13.5 -12 11 C-12.61014545 8.1910285 -12.65360928 5.80363979 -12 3 C-8.3655827 -1.51548816 -5.40521016 -1.50144727 0 0 Z " fill="#FEFBFB" transform="translate(370,160)"/>
</svg>
