<?xml version="1.0" encoding="UTF-8"?>
<svg version="1.1" xmlns="http://www.w3.org/2000/svg" width="748" height="587">
<path d="M0 0 C1.15724305 -0.00453111 2.31448611 -0.00906223 3.50679713 -0.01373065 C6.7059047 -0.02417664 9.90487035 -0.02570463 13.10398948 -0.02334189 C16.55949557 -0.02293277 20.01496847 -0.03398207 23.47045898 -0.04345703 C30.23603468 -0.06004809 37.00157552 -0.06556574 43.76716986 -0.06668179 C49.26938426 -0.06763328 54.77158721 -0.07174865 60.27379799 -0.07808304 C75.88751688 -0.09569128 91.50120832 -0.10492271 107.11493721 -0.10342209 C107.95613345 -0.10334218 108.79732969 -0.10326227 109.66401672 -0.10317993 C110.50624508 -0.10309817 111.34847344 -0.10301641 112.21622387 -0.10293217 C125.8585569 -0.10211967 139.50077942 -0.12124923 153.1430805 -0.14945666 C167.16456178 -0.17821834 181.18598923 -0.19199511 195.20750076 -0.19026911 C203.07397588 -0.18960628 210.94033519 -0.19505139 218.80678368 -0.21662521 C225.50591589 -0.23488042 232.20487979 -0.239149 238.90402617 -0.22560637 C242.31825354 -0.21909809 245.73215844 -0.21888102 249.14635468 -0.23631287 C252.85770219 -0.25179915 256.56821095 -0.24243338 260.27954102 -0.22705078 C261.3448414 -0.23733791 262.41014178 -0.24762503 263.50772399 -0.25822389 C277.41588482 -0.13142574 288.13339393 5.23352219 298.20722961 14.57992554 C309.51379906 26.55315592 310.91622676 40.15165675 310.75019836 55.87289429 C310.74459038 57.44900607 310.74032598 59.02512314 310.73733521 60.60124207 C310.72598086 64.71285914 310.69659705 68.82414901 310.66322327 72.93563843 C310.63231721 77.14579851 310.61878637 81.3560124 310.60371399 85.56625366 C310.57171632 93.80014317 310.51902767 102.03370572 310.45722961 110.26742554 C299.56722961 107.79242554 299.56722961 107.79242554 288.45722961 105.26742554 C288.14472961 95.26742554 288.14472961 95.26742554 288.06929016 92.16586304 C287.78496435 85.01551867 286.82115111 79.14246519 282.14472961 73.45492554 C276.71727075 69.03722646 271.54024036 67.14623384 264.63293171 67.13599777 C263.65865044 67.13215663 262.68436917 67.12831548 261.68056422 67.12435794 C260.61278009 67.12522442 259.54499596 67.1260909 258.44485474 67.12698364 C256.74028666 67.12252696 256.74028666 67.12252696 255.00128287 67.11798024 C251.17905526 67.10928248 247.35685893 67.10778407 243.53462219 67.10629272 C240.79989944 67.10220345 238.06518 67.09666138 235.33045959 67.09124756 C227.89024843 67.07766815 220.45004267 67.07164001 213.00982118 67.0672369 C208.36300877 67.06447357 203.71619844 67.06023602 199.06938744 67.05573273 C186.200848 67.04354011 173.33231023 67.03324108 160.46376514 67.02985764 C159.64020615 67.02963807 158.81664715 67.0294185 157.96813182 67.02919228 C157.14261287 67.02897401 156.31709391 67.02875573 155.46655923 67.02853084 C153.79377162 67.02808737 152.12098402 67.02764081 150.44819641 67.02719116 C149.61843769 67.02696973 148.78867897 67.0267483 147.93377604 67.02652016 C134.4929436 67.02257334 121.05216541 67.00512282 107.61135391 66.98183164 C93.80808018 66.95810569 80.00483366 66.9456552 66.20153922 66.94448972 C58.45306327 66.94357361 50.70465801 66.93783749 42.95620155 66.9196701 C36.35721422 66.90425226 29.7583194 66.89915853 23.15931747 66.90740821 C19.79409514 66.91130896 16.42921013 66.9087741 13.06398582 66.89635086 C9.4106714 66.88365569 5.75783382 66.8894956 2.10452271 66.89993286 C1.04789218 66.89187646 -0.00873834 66.88382005 -1.09738797 66.87551951 C-8.6760634 66.92610321 -15.43186735 67.69754912 -21.41777039 72.64242554 C-26.75512397 79.23562702 -27.67761083 84.20235826 -27.85917664 92.53305054 C-27.89034828 93.72314728 -27.89034828 93.72314728 -27.92214966 94.93728638 C-27.98737011 97.46391397 -28.04640183 99.99064275 -28.10527039 102.51742554 C-28.14848179 104.2335817 -28.19209691 105.94972775 -28.23612976 107.66586304 C-28.34302321 111.866281 -28.44436767 116.06680043 -28.54277039 120.26742554 C-27.19739464 120.26189478 -27.19739464 120.26189478 -25.82483959 120.25625229 C-3.97328087 120.16780958 17.87824688 120.10167132 39.72994709 120.06017685 C50.29739127 120.03957566 60.86471578 120.01150181 71.43208313 119.96566772 C80.64554161 119.92572512 89.8589134 119.89997497 99.07245606 119.89107156 C103.94831879 119.88586938 108.82393353 119.87369342 113.69971657 119.84450531 C118.29536648 119.81721882 122.89066784 119.80900714 127.48639107 119.81499481 C129.16691232 119.81390047 130.84744604 119.80602573 132.52789688 119.79060364 C143.92902316 119.69116342 153.89568906 120.73254954 163.64472961 127.26742554 C164.3807843 127.74180054 165.11683899 128.21617554 165.87519836 128.70492554 C166.39726868 129.22055054 166.91933899 129.73617554 167.45722961 130.26742554 C167.45722961 134.26742554 167.45722961 134.26742554 166.2389679 135.74032593 C165.39181213 136.42083008 165.39181213 136.42083008 164.52754211 137.11508179 C163.9018634 137.63199585 163.27618469 138.14890991 162.63154602 138.68148804 C161.95527161 139.22547241 161.27899719 139.76945679 160.58222961 140.32992554 C132.24708142 164.04803689 114.85138857 199.3532635 110.73847961 236.01351929 C107.59492595 277.1114533 118.31508029 317.67918998 145.00508118 349.62631226 C148.26248351 353.3075931 151.78419401 356.74315176 155.3429718 360.13119507 C156.74712062 361.47659112 158.10670221 362.86821141 159.45722961 364.26742554 C159.45722961 364.92742554 159.45722961 365.58742554 159.45722961 366.26742554 C158.04244826 366.91737851 156.62531474 367.56221276 155.20722961 368.20492554 C154.41832336 368.56457397 153.62941711 368.92422241 152.81660461 369.29476929 C149.02527646 370.8577506 145.7902173 371.39135495 141.69160461 371.36508179 C140.80215149 371.36185913 139.91269836 371.35863647 138.99629211 371.35531616 C138.07590149 371.34693726 137.15551086 371.33855835 136.20722961 371.32992554 C135.27137024 371.32541382 134.33551086 371.3209021 133.37129211 371.31625366 C131.0665392 371.30449472 128.76191735 371.28805979 126.45722961 371.26742554 C126.47817688 372.27120239 126.49912415 373.27497925 126.52070618 374.30917358 C126.59329655 378.0456812 126.63909773 381.78212691 126.67695618 385.51913452 C126.69702854 387.13415012 126.72429292 388.74909343 126.75898743 390.36386108 C126.80770176 392.68997055 126.83024116 395.01511647 126.84785461 397.34164429 C126.86849976 398.05954636 126.8891449 398.77744843 126.91041565 399.5171051 C126.91203339 403.15996297 126.55770672 405.1122801 124.55781555 408.20028687 C122.44906999 410.27545523 121.48563488 411.21683749 118.54145813 411.36166382 C111.97288449 410.93031169 108.87533526 408.80822269 104.39472961 404.14242554 C103.17536704 402.94120438 101.95532125 401.74067634 100.73457336 400.54086304 C100.16335754 399.96690796 99.59214172 399.39295288 99.00361633 398.80160522 C97.22396247 397.03599978 95.36958212 395.38778444 93.45722961 393.76742554 C90.95421986 391.62044734 88.53459728 389.4057875 86.14472961 387.13461304 C85.53887024 386.56162476 84.93301086 385.98863647 84.30879211 385.39828491 C83.11064417 384.26206656 81.91756699 383.12046678 80.73066711 381.97250366 C73.51130684 375.14048349 67.84838841 371.50762144 57.73652649 371.60800171 C56.7990155 371.59751801 55.86150452 371.5870343 54.89558411 371.57623291 C51.82204024 371.54761978 48.74963207 371.55375841 45.67597961 371.56039429 C43.53505552 371.54727097 41.39414379 371.5319648 39.25325012 371.51457214 C33.63742009 371.47478385 28.02191443 371.46453562 22.40596008 371.46054077 C16.66774189 371.45119779 10.92971336 371.41377685 5.19160461 371.37875366 C-6.05317824 371.31424048 -17.29781865 371.28094892 -28.54277039 371.26742554 C-28.48142792 381.16899432 -28.40422744 391.07030238 -28.30705547 400.97158813 C-28.26242175 405.56969432 -28.22315036 410.16771333 -28.19633484 414.76596069 C-28.17023184 419.20762014 -28.12978039 423.64894287 -28.07958412 428.09039307 C-28.06296258 429.78071895 -28.05141905 431.47110302 -28.04515648 433.16149902 C-28.03546371 435.53830862 -28.00734453 437.91426588 -27.97514343 440.29086304 C-27.97657852 440.9821077 -27.97801361 441.67335236 -27.97949219 442.38554382 C-27.85731804 448.80586891 -26.30136007 454.12860024 -22.23027039 459.07992554 C-15.62263348 464.45823464 -10.20605123 464.7003092 -1.97944641 464.65510559 C-0.80798486 464.66049113 0.36347669 464.66587667 1.57043707 464.6714254 C4.81379671 464.68324477 8.05682646 464.68163916 11.30018902 464.67425859 C14.80131599 464.6695262 18.30238799 464.68203743 21.80349731 464.692276 C28.65946248 464.70946842 35.51533601 464.71030305 42.37131713 464.7050631 C47.94462783 464.70102072 53.51791145 464.70246576 59.09122086 464.70781136 C60.28132979 464.70893399 60.28132979 464.70893399 61.49548132 464.7100793 C63.10732527 464.71161079 64.71916922 464.71314914 66.33101316 464.71469427 C81.4454697 464.72842109 96.55987447 464.72298051 111.67432983 464.71150906 C125.4972622 464.70157808 139.32006068 464.71451465 153.14297239 464.73844325 C167.34069071 464.76283523 181.53834668 464.77244178 195.73608553 464.76579052 C203.70528025 464.76229831 211.67437201 464.76453038 219.64355087 464.78204155 C226.42810282 464.79676485 233.21247935 464.79739746 239.99702786 464.77997064 C243.45732584 464.7714589 246.91731046 464.76931486 250.37759209 464.78462219 C254.13200397 464.79778918 257.88556331 464.78632086 261.63993835 464.76863098 C262.72924507 464.77823599 263.81855178 464.78784099 264.94086778 464.79773706 C271.5590424 464.7335522 275.8040728 463.77288631 281.45722961 460.26742554 C283.33658761 458.38464243 283.33658761 458.38464243 284.39472961 456.26742554 C284.77500305 455.60742554 285.15527649 454.94742554 285.54707336 454.26742554 C287.14556823 450.75485312 287.58706887 447.5213146 287.66255188 443.6824646 C287.6824971 442.78183289 287.70244232 441.88120117 287.72299194 440.95327759 C287.74806068 439.5077652 287.74806068 439.5077652 287.77363586 438.03305054 C287.79441696 437.03988831 287.81519806 436.04672607 287.83660889 435.02346802 C287.90192711 431.85485672 287.96090701 428.68616343 288.01972961 425.51742554 C288.06293169 423.36767752 288.10654652 421.21793775 288.15058899 419.06820679 C288.25759033 413.80136605 288.35938952 408.53444399 288.45722961 403.26742554 C291.93578829 402.26530213 295.41517436 401.26608264 298.89472961 400.26742554 C299.88795227 399.98125366 300.88117493 399.69508179 301.90449524 399.40023804 C303.32085266 398.99418335 303.32085266 398.99418335 304.76582336 398.57992554 C305.6403717 398.32855835 306.51492004 398.07719116 307.41596985 397.81820679 C309.45722961 397.26742554 309.45722961 397.26742554 310.45722961 397.26742554 C310.55094412 412.96695678 310.62134095 428.66641168 310.6644783 444.36615372 C310.68504599 451.65690753 310.71305464 458.94748688 310.75898743 466.23812866 C310.79903388 472.59753474 310.82470446 478.95681438 310.83358359 485.31634307 C310.83876862 488.67938588 310.85297545 492.04178252 310.88014984 495.40476227 C310.90936849 499.17202308 310.91317775 502.93854543 310.91133118 506.7059021 C310.92571228 507.80354889 310.94009338 508.90119568 310.95491028 510.03210449 C310.87924204 524.3853724 305.44542062 535.11766405 295.83222961 545.45492554 C284.62047519 556.27948724 271.77997226 558.57928701 256.75024414 558.53485107 C255.61156114 558.53938219 254.47287814 558.5439133 253.29968959 558.54858172 C249.50539995 558.56118555 245.71125459 558.55960793 241.91694641 558.55795288 C239.18782515 558.56285713 236.45871385 558.57069067 233.729599 558.57830811 C227.09845318 558.59486794 220.46734293 558.60041535 213.83617815 558.60153286 C208.44273967 558.6024856 203.04931285 558.6066071 197.65587807 558.61293411 C182.34163682 558.63053179 167.02742353 558.63977514 151.7131721 558.63827316 C150.88886977 558.63819325 150.06456744 558.63811334 149.21528625 558.63803101 C148.38996978 558.63794924 147.56465331 558.63786748 146.71432725 558.63778324 C133.34122044 558.63697046 119.96822628 558.65610998 106.59515204 558.68430774 C92.84138374 558.71307788 79.08767032 558.72684581 65.33387119 558.72512019 C57.62110907 558.72445778 49.90846511 558.72988472 42.19573021 558.75147629 C35.62918232 558.76974244 29.06280618 558.77399097 22.4962438 558.76045744 C19.15065369 558.75395524 15.80565964 558.75591 12.46005821 558.77116394 C-6.32458844 558.85123845 -22.10045807 558.5000686 -36.79277039 545.23617554 C-48.30051624 533.20535032 -50.85751642 519.87937483 -50.76982117 503.86508179 C-50.76925626 502.41564441 -50.76957516 500.96620646 -50.77070618 499.51676941 C-50.7712776 495.60202796 -50.75955748 491.68741026 -50.74555826 487.77269745 C-50.73301574 483.67410416 -50.73187763 479.57550771 -50.72950745 475.47689819 C-50.723303 467.72458216 -50.70690625 459.97232285 -50.68680847 452.22003174 C-50.66441717 443.39051796 -50.65344792 434.56100141 -50.6434176 425.73146629 C-50.62253907 407.57675394 -50.5873833 389.42209431 -50.54277039 371.26742554 C-51.17789047 371.27630798 -51.81301056 371.28519043 -52.46737671 371.29434204 C-59.13572602 371.38350294 -65.80390336 371.44344234 -72.47270203 371.4871521 C-74.95454294 371.50714744 -77.43633748 371.53435279 -79.91801453 371.56918335 C-83.50528986 371.61823517 -87.09193717 371.64051612 -90.67948914 371.65805054 C-91.77170273 371.67869568 -92.86391632 371.69934082 -93.98922729 371.72061157 C-108.58451382 371.7247711 -119.82397555 366.74972583 -130.35527039 356.82992554 C-139.68261764 346.9758575 -142.65045142 335.51486727 -142.68321228 322.141922 C-142.6861834 321.45978215 -142.68915452 320.7776423 -142.69221568 320.07483155 C-142.70083093 317.80755521 -142.70240481 315.54033212 -142.7039032 313.27304077 C-142.70853656 311.63957102 -142.71356191 310.00610233 -142.71894836 308.37263489 C-142.7320267 303.9466311 -142.73850867 299.52064245 -142.74295902 295.09462237 C-142.74589785 292.32369521 -142.75000422 289.55277211 -142.7544632 286.781847 C-142.76812768 278.09577182 -142.7777988 269.40970601 -142.78166509 260.72362083 C-142.78613984 250.72789186 -142.80366506 240.73230003 -142.83266568 230.73661274 C-142.85435284 222.99024189 -142.86437315 215.24390943 -142.86570621 207.49750859 C-142.86674944 202.8804868 -142.87255362 198.26359411 -142.89052582 193.64660454 C-142.90712807 189.29710904 -142.90910372 184.94783801 -142.90038681 180.59832191 C-142.89962282 179.01259633 -142.9038736 177.42685806 -142.91384506 175.84116364 C-143.0122662 159.19768339 -141.0653494 145.1989382 -129.41777039 132.51742554 C-118.66985712 122.27700228 -106.21951855 119.94288325 -91.94902039 120.07211304 C-90.16812012 120.07635788 -90.16812012 120.07635788 -88.35124207 120.08068848 C-84.58164638 120.09182956 -80.81229354 120.11692327 -77.04277039 120.14242554 C-74.47766967 120.15246317 -71.9125652 120.16158765 -69.34745789 120.16976929 C-63.0791467 120.19174903 -56.8109759 120.22516603 -50.54277039 120.26742554 C-50.55165283 119.30657547 -50.56053528 118.3457254 -50.56968689 117.35575867 C-50.65117197 108.25058221 -50.71092589 99.14548082 -50.75001907 90.04002094 C-50.77079375 85.36005128 -50.79892373 80.68037863 -50.8445282 76.00057983 C-50.88835046 71.47476008 -50.91198335 66.94922397 -50.92227936 62.42320824 C-50.92960605 60.70622487 -50.94391116 58.98925504 -50.96569061 57.27239418 C-51.17508806 40.06362695 -47.9678858 25.97516182 -35.91777039 13.01742554 C-25.55885856 3.08036985 -13.9063828 -0.04001184 0 0 Z M81.91546631 30.64082336 C80.24487065 33.14922269 80.24487065 33.14922269 80.45722961 35.89242554 C81.72610969 38.90601573 82.59079747 39.67127003 85.45722961 41.26742554 C88.38208311 41.563262 91.09324939 41.68770054 94.01777649 41.67147827 C94.8800032 41.67834152 95.74222992 41.68520477 96.63058472 41.692276 C99.47921742 41.71056984 102.32730081 41.70670322 105.17597961 41.70101929 C107.15608398 41.7055795 109.13618676 41.7108846 111.11628723 41.71690369 C115.26564465 41.72583961 119.41480964 41.72340575 123.56416321 41.71347046 C128.88418408 41.70197398 134.20354189 41.72220033 139.52347565 41.7513876 C143.61211878 41.76972307 147.7006022 41.76946254 151.78927612 41.76375008 C153.75090465 41.76359657 155.71254381 41.76966506 157.6741333 41.78204155 C160.41540799 41.79690151 163.15544701 41.78631197 165.89668274 41.76913452 C166.70823318 41.77880249 167.51978363 41.78847046 168.35592651 41.7984314 C171.91860126 41.7516282 174.05543049 41.55304262 176.99617004 39.46263123 C178.79960461 37.20382902 178.79960461 37.20382902 178.39472961 33.64242554 C177.78214511 30.0122563 177.78214511 30.0122563 174.45722961 28.26742554 C171.57963433 28.05708394 168.79747013 27.96335002 165.91841125 27.96102905 C165.046577 27.95270554 164.17474274 27.94438202 163.27648926 27.93580627 C160.39007626 27.91168018 157.50388905 27.90293156 154.61738586 27.89633179 C152.61343313 27.88736838 150.6094811 27.87824659 148.60552979 27.86897278 C144.40316642 27.85247379 140.20088283 27.84478084 135.99848938 27.84188843 C130.60998888 27.83649962 125.22223626 27.79880278 119.83394718 27.75314426 C115.6947047 27.72342498 111.55564355 27.71616601 107.41630363 27.71516228 C105.4295299 27.71095079 103.44275607 27.69847948 101.45608711 27.67764473 C98.67864313 27.65083277 95.90294916 27.65552471 93.1254425 27.6680603 C91.89173416 27.64580887 91.89173416 27.64580887 90.63310242 27.62310791 C86.66805329 27.67415146 84.86337094 27.88818686 81.91546631 30.64082336 Z M-80.32792664 180.20492554 C-87.33516858 188.80716629 -90.63042432 199.16661497 -90.71977234 210.13046265 C-90.72634354 210.80120819 -90.73291473 211.47195374 -90.73968506 212.1630249 C-90.75932192 214.37360779 -90.77106441 216.58412275 -90.78105164 218.79476929 C-90.78512716 219.55602175 -90.78920269 220.31727421 -90.79340172 221.10159492 C-90.8142302 225.13774463 -90.82854097 229.17386076 -90.8379364 233.21005249 C-90.84894258 237.34191324 -90.88328365 241.47322679 -90.9231081 245.60489559 C-90.94949536 248.81291067 -90.95764801 252.02080026 -90.96121788 255.22891426 C-90.9660338 256.74968691 -90.97750153 258.2704559 -90.99625587 259.79112053 C-91.17821039 275.53382046 -88.40840926 289.46407486 -77.51152039 301.51351929 C-68.04268113 310.58782357 -56.1063101 315.64782205 -43.00370789 315.37997437 C-41.53976123 315.357536 -40.07581256 315.33522851 -38.61186218 315.31303406 C-37.46564896 315.29011512 -37.46564896 315.29011512 -36.29627991 315.26673317 C-32.18474762 315.19365349 -28.07280901 315.18449272 -23.96073914 315.16390991 C-18.75728745 315.13443394 -13.55608853 315.08684704 -8.35380554 314.96932983 C25.20576034 314.24683191 25.20576034 314.24683191 34.33613586 322.43148804 C35.9571837 324.07617887 37.46122748 325.75559751 38.92907715 327.53782654 C41.7248628 330.70216267 45.08621306 333.22479755 48.39472961 335.82992554 C49.05186951 336.35322952 49.7090094 336.87653351 50.38606262 337.41569519 C56.86525946 342.54741964 62.98239521 346.17067268 71.50410461 345.70883179 C73.72258421 345.35333282 73.72258421 345.35333282 76.01972961 343.26742554 C79.26797505 336.48847853 77.01514611 329.59748353 74.95722961 322.76742554 C74.71875305 321.94500366 74.48027649 321.12258179 74.23457336 320.27523804 C73.65161222 318.26985172 73.05575811 316.26822079 72.45722961 314.26742554 C73.3479718 313.9902771 74.23871399 313.71312866 75.15644836 313.42758179 C88.4353484 308.76032343 96.84406083 299.45944037 103.04707336 287.18539429 C107.03801508 277.31882649 106.76986035 266.32093246 106.75801086 255.86117554 C106.76191146 254.40491619 106.76624885 252.94865796 106.77099609 251.49240112 C106.77840009 248.46017749 106.77820905 245.42807043 106.77290344 242.39584351 C106.76710506 238.54317645 106.78407695 234.69098958 106.80724812 230.83840179 C106.82209725 227.83720187 106.8228423 224.83611481 106.81973839 221.83488464 C106.82024562 220.4157567 106.8253686 218.99662141 106.83555031 217.57752991 C106.93716039 201.44533643 103.77052668 187.2072914 92.49238586 175.11117554 C80.19268556 163.96826086 66.1623835 161.12553844 50.13252258 161.10629272 C49.12971756 161.10132782 48.12691254 161.09636292 47.09371948 161.09124756 C43.79561155 161.07671435 40.49755173 161.06983821 37.19941711 161.06430054 C36.06580875 161.06147316 34.93220039 161.05864578 33.76424026 161.05573273 C27.76346354 161.04077472 21.76271063 161.03152426 15.76191711 161.02719116 C9.59567153 161.02171609 3.4296478 160.99769844 -2.7365284 160.96921921 C-7.50665401 160.95049893 -12.27672721 160.94538221 -17.04688644 160.94385529 C-19.31843654 160.94084867 -21.58998616 160.93288839 -23.86149979 160.9196701 C-46.63246923 160.79663414 -64.14003863 162.63557662 -80.32792664 180.20492554 Z M96.64472961 501.01742554 C94.8990751 504.32498145 94.3358744 507.56966062 94.45722961 511.26742554 C95.99765527 515.48332733 98.03007064 518.37576016 101.45722961 521.26742554 C104.39584204 522.24696301 106.33609835 522.40489918 109.40010071 522.42855835 C110.40479401 522.43816589 111.4094873 522.44777344 112.44462585 522.45767212 C114.07121628 522.46404694 114.07121628 522.46404694 115.73066711 522.47055054 C117.40450974 522.47910065 117.40450974 522.47910065 119.11216736 522.48782349 C121.47424877 522.49727388 123.83634337 522.50380762 126.19844055 522.50765991 C129.81097912 522.51736843 133.42294952 522.54839336 137.03535461 522.57992554 C139.32962207 522.58645535 141.62389359 522.59170591 143.91816711 522.59555054 C145.53868484 522.61407074 145.53868484 522.61407074 147.19194031 522.63296509 C154.34978449 522.70367099 154.34978449 522.70367099 160.45722961 519.26742554 C163.52355837 515.77521778 165.35433569 513.63077009 165.70722961 508.95492554 C165.35193276 503.71429698 163.79506541 501.44211062 159.89472961 498.01742554 C156.49438986 495.57615597 154.77664423 495.13647494 150.64375305 495.09042358 C149.14144135 495.07117073 149.14144135 495.07117073 147.60877991 495.05152893 C146.52236206 495.044142 145.43594421 495.03675507 144.31660461 495.02914429 C143.20166626 495.02107254 142.08672791 495.01300079 140.93800354 495.00468445 C138.57414815 494.99083494 136.21027268 494.98011668 133.84638977 494.97225952 C130.23581357 494.95506169 126.62615636 494.91118368 123.01582336 494.86703491 C120.72025719 494.85690688 118.42468322 494.84839113 116.12910461 494.84164429 C114.51162323 494.81538216 114.51162323 494.81538216 112.86146545 494.78858948 C105.45950023 494.80994229 101.99949758 495.84730475 96.64472961 501.01742554 Z " fill="#48A0F8" transform="translate(215.5427703857422,12.732574462890625)"/>
<path d="M0 0 C1.00909424 0.24943359 1.00909424 0.24943359 2.03857422 0.50390625 C26.15028005 6.51930064 46.78159822 18.25000395 65 35 C65.67289063 35.60199219 66.34578125 36.20398438 67.0390625 36.82421875 C92.3879975 60.6714396 106.0801506 96.38083465 107.21875 130.6640625 C107.91500183 163.11669907 99.37444495 194.29599997 79 220 C81.21637346 224.92869469 84.78150308 228.34254684 88.5 232.1875 C89.1703125 232.92419922 89.840625 233.66089844 90.53125 234.41992188 C94.25293897 238.25086497 96.71578449 240.38448786 102.15625 240.73828125 C102.93806641 240.71419189 103.71988281 240.69010254 104.52539062 240.6652832 C110.4188927 241.46244099 114.77880425 246.4907003 118.80249023 250.55957031 C119.34807587 251.1032576 119.8936615 251.64694489 120.45578003 252.20710754 C122.24496375 253.9926092 124.02687989 255.78517174 125.80859375 257.578125 C127.06083734 258.83156252 128.31345283 260.0846286 129.56642151 261.33734131 C132.1877741 263.96025463 134.80574508 266.5864809 137.42114258 269.21533203 C140.75574846 272.56688287 144.09685389 275.91185855 147.44032192 279.25456619 C150.02728706 281.84180481 152.61162574 284.43165372 155.19511604 287.02236176 C156.4251841 288.25558871 157.65583821 289.48823142 158.88711357 290.72025299 C164.60515317 296.44555261 170.27689109 302.16177355 175.53443909 308.31997681 C177.82933195 310.95069192 180.31515732 313.36501413 182.828125 315.78515625 C183.8858501 316.82052093 184.94312908 317.85634154 186 318.89257812 C187.63025286 320.48566791 189.26336119 322.07538203 190.90429688 323.6574707 C192.513218 325.2116292 194.10889928 326.77844519 195.703125 328.34765625 C196.64833008 329.26554932 197.59353516 330.18344238 198.56738281 331.12915039 C203.20531738 336.60260207 204.57787248 341.98618587 204.34375 349.09765625 C203.29219915 357.97609125 199.66450719 365.06252996 193 371 C184.91861336 377.05726363 178.01934858 377.65076651 168 377 C158.51774177 374.35740344 151.48562384 365.63513292 144.70385742 358.84912109 C143.91746887 358.06609116 143.13108032 357.28306122 142.32086182 356.4763031 C139.74643403 353.91130309 137.17572624 351.34261589 134.60546875 348.7734375 C132.8081224 346.97930728 131.010702 345.18525123 129.21321106 343.39126587 C125.4584775 339.64250154 121.7057767 335.89171654 117.9543457 332.13964844 C113.62469335 327.80939351 109.28947198 323.48476952 104.95165175 319.16269815 C100.76333266 314.9890406 96.58056243 310.80985311 92.3998661 306.62855911 C90.62605412 304.85592711 88.85062052 303.08491627 87.07353783 301.3155632 C84.59397855 298.84578924 82.12082091 296.36977463 79.64916992 293.89208984 C78.91511429 293.16365372 78.18105865 292.43521759 77.42475891 291.68470764 C69.15041065 283.35887417 69.15041065 283.35887417 68.82446289 278.24707031 C68.8527417 277.28381836 68.88102051 276.32056641 68.91015625 275.328125 C68.42777139 267.44070948 64.08241233 263.81542744 58.4375 258.75 C57.53580078 257.89792969 56.63410156 257.04585938 55.70507812 256.16796875 C53.49300691 254.08464242 51.25964921 252.03141793 49 250 C47.93724854 250.58116577 47.93724854 250.58116577 46.85302734 251.17407227 C43.90343118 252.78531967 40.95194077 254.39305275 38 256 C37.31711914 256.37366699 36.63423828 256.74733398 35.93066406 257.13232422 C24.74372312 263.19578226 13.22760638 267.51819151 1 271 C0.32517578 271.1949707 -0.34964844 271.38994141 -1.04492188 271.59082031 C-32.85644664 280.24713012 -70.75704129 273.86170074 -99.15234375 258.07519531 C-124.38292936 243.39291479 -143.83969154 221.87229873 -157 196 C-157.73476563 194.57300781 -157.73476563 194.57300781 -158.484375 193.1171875 C-174.17475688 160.67102744 -174.94159362 121.97305705 -163.86328125 88.06640625 C-151.78891684 53.72347357 -126.37499924 26.03175421 -93.95703125 9.84375 C-65.44110258 -3.74143126 -30.81587683 -8.1042815 0 0 Z M-113.49609375 60.19921875 C-136.57081191 86.00978493 -142.58719019 117.31427578 -141 151 C-138.73321669 175.14186162 -125.81557554 197.1362423 -109 214 C-108.24460937 214.77859375 -107.48921875 215.5571875 -106.7109375 216.359375 C-86.22614589 236.21061636 -56.99081468 245.62224444 -28.88671875 245.2109375 C1.73196634 244.22617931 28.77766517 230.62914717 49.70703125 208.6953125 C70.11970011 186.38941431 77.97046081 157.31506236 77.13623047 127.67138672 C75.96582039 104.72044203 66.42473067 81.04036452 51 64 C50.32710937 63.18660156 49.65421875 62.37320313 48.9609375 61.53515625 C31.90335684 41.40721107 6.78002279 29.79848642 -19 26 C-55.72399834 23.96354908 -87.51365997 33.40356325 -113.49609375 60.19921875 Z " fill="#48A0F8" transform="translate(509,131)"/>
<path d="M0 0 C9.52447816 5.27281052 14.42097475 16.67007517 19.44140625 25.859375 C24.19785426 34.46067184 29.03028579 43.00670702 34.00390625 51.484375 C38.80526905 59.67470082 43.55923641 67.88890146 48.25683594 76.13916016 C51.07244479 81.08097463 53.90295616 86.01371487 56.75 90.9375 C57.08227097 91.51219025 57.41454193 92.08688049 57.75688171 92.6789856 C59.37904139 95.48412211 61.00274253 98.28834943 62.62866211 101.09130859 C64.38873276 104.13340013 66.13686074 107.18193023 67.87890625 110.234375 C68.74829834 111.74559937 68.74829834 111.74559937 69.63525391 113.28735352 C70.17972168 114.25342529 70.72418945 115.21949707 71.28515625 116.21484375 C71.77048828 117.06973389 72.25582031 117.92462402 72.75585938 118.80541992 C74.92718864 123.50162749 74.72839523 127.58208161 73.17578125 132.4296875 C71.08053686 137.24164707 68.59131914 139.7277724 63.87890625 142.234375 C60.80843081 143.25786681 58.7014793 143.36744729 55.4848175 143.38154602 C54.36475815 143.38870132 53.24469879 143.39585663 52.09069824 143.40322876 C50.86105347 143.40591766 49.63140869 143.40860657 48.36450195 143.41137695 C47.06993576 143.41794815 45.77536957 143.42451935 44.4415741 143.43128967 C40.14595781 143.4523157 35.85034123 143.46269213 31.5546875 143.47265625 C30.07425607 143.47670465 28.59382483 143.48082159 27.11339378 143.48500633 C20.15620527 143.50405647 13.19902735 143.51828668 6.24181777 143.5266183 C-1.77991867 143.53638409 -9.80137869 143.56268688 -17.82301778 143.60311919 C-24.02867445 143.63332082 -30.23425208 143.64809108 -36.4399808 143.65139931 C-40.14367715 143.65374562 -43.84707814 143.66265054 -47.55069542 143.68786049 C-51.68721153 143.71556195 -55.82311371 143.71129776 -59.9597168 143.7043457 C-61.17924042 143.71715576 -62.39876404 143.72996582 -63.65524292 143.74316406 C-70.62572988 143.70048767 -75.20536932 143.0105235 -81.12109375 139.234375 C-85.01050383 135.24261202 -86.94593966 131.5707046 -87.36328125 126.00390625 C-87.09478201 121.82484545 -85.93396606 118.91563262 -83.99609375 115.296875 C-83.64482422 114.61850586 -83.29355469 113.94013672 -82.93164062 113.24121094 C-78.55446086 104.93192599 -73.73321596 96.86562765 -68.96484375 88.77734375 C-64.96142168 81.98200747 -61.03130363 75.14605823 -57.12109375 68.296875 C-56.78704529 67.71219452 -56.45299683 67.12751404 -56.10882568 66.52511597 C-51.27378995 58.05877149 -46.4965725 49.560974 -41.74609375 41.046875 C-15.65560038 -5.65100861 -15.65560038 -5.65100861 0 0 Z M-17.99609375 43.359375 C-21.34918583 51.92838809 -18.58956293 63.86485977 -17.68676758 72.89453125 C-17.51737373 74.62734698 -17.35760725 76.3611297 -17.20727539 78.09570312 C-16.98751305 80.62881605 -16.73917963 83.15769997 -16.484375 85.6875 C-16.42268631 86.45636536 -16.36099762 87.22523071 -16.29743958 88.01739502 C-15.69191539 93.54847915 -14.18095051 96.37858213 -10.12109375 100.234375 C-6.21512916 100.91963195 -4.19299589 100.90069255 -0.80859375 98.796875 C3.86895516 91.69393036 3.67077739 81.22214913 4.50390625 72.984375 C4.63796875 71.75074219 4.77203125 70.51710937 4.91015625 69.24609375 C7.36977539 54.41507623 7.36977539 54.41507623 3.06640625 40.984375 C0.12994109 38.05516037 -2.2658019 37.31506291 -6.43359375 36.921875 C-11.71702002 37.36962299 -14.53593468 39.43786139 -17.99609375 43.359375 Z M-16.12109375 112.234375 C-17.96972063 115.93162875 -17.59696469 120.19898942 -17.12109375 124.234375 C-15.32462521 127.16860695 -14.17698665 128.70642855 -11.12109375 130.234375 C-6.20112447 130.76555752 -2.34781778 130.98543053 1.94140625 128.359375 C5.15181312 124.8382836 5.26813563 122.18992897 5.23828125 117.5625 C4.63346347 113.64433264 2.71013868 111.93078684 -0.12109375 109.234375 C-5.82561776 106.382113 -11.858027 107.70486658 -16.12109375 112.234375 Z " fill="#EF732A" transform="translate(483.12109375,184.765625)"/>
<path d="M0 0 C3.65671794 2.05979682 6.82742347 4.89598214 8 9 C8.62932102 15.398097 7.85874878 18.82115296 4 24 C-0.47276349 27.15126519 -4.68353355 27.7852665 -10 27 C-14.17905855 25.42299677 -16.70772617 23.86067171 -19 20 C-20.59121454 15.22635638 -20.79879085 10.84983145 -18.8125 6.25 C-13.43205383 -0.42917455 -8.14195239 -2.04243516 0 0 Z " fill="#4294E6" transform="translate(276,239)"/>
<path d="M0 0 C3.69068363 3.26153437 5.43996216 6.38097087 5.8515625 11.359375 C5.59659433 16.41951255 3.60489681 19.3354593 0.2578125 23.02734375 C-3.04644851 25.86309014 -6.89101077 25.70723646 -11.02734375 25.66015625 C-15.41770487 25.11229922 -18.10230911 22.58519089 -21.125 19.5625 C-23.12992875 15.86921019 -23.71024689 12.44096685 -22.91015625 8.28515625 C-21.66644587 4.33324812 -20.60408444 2.61191235 -17.3125 -0.0625 C-11.11310618 -3.29135095 -6.16746743 -3.02555006 0 0 Z " fill="#4599EE" transform="translate(185.3125,240.625)"/>
<path d="M0 0 C4.05723987 2.13927193 6.30972687 3.75519644 8 8 C8.70031352 12.93476739 8.51450496 16.91162413 6.375 21.4375 C2.70107137 25.40147563 -0.68425519 27.13191549 -6.0625 27.375 C-11.33634048 26.87272948 -13.56714869 25.43285131 -17.25 21.75 C-20.11492163 17.24798029 -20.24462435 13.57646805 -19.4375 8.375 C-17.59539101 4.05004847 -15.835917 2.66165669 -12 0 C-7.80819791 -1.39726736 -4.2815167 -0.94982452 0 0 Z " fill="#4599EE" transform="translate(229,239)"/>
<path d="M0 0 C0.5335257 6.40230844 0.15995252 11.836338 -4 17 C-6.38693353 18.66542862 -8.11684668 19.21368546 -11 20 C-14 19 -14 19 -16 16 C-14.68 16 -13.36 16 -12 16 C-12.185625 15.38125 -12.37125 14.7625 -12.5625 14.125 C-13 12 -13 12 -12 10 C-12.66 9.67 -13.32 9.34 -14 9 C-13.0409375 8.5978125 -13.0409375 8.5978125 -12.0625 8.1875 C-9.66868314 7.11332248 -9.66868314 7.11332248 -9 4 C-8.34 3.67 -7.68 3.34 -7 3 C-8.65 2.67 -10.3 2.34 -12 2 C-10 -1 -10 -1 -8.25 -1.8125 C-5.1610162 -2.06991532 -2.86013448 -1.10505196 0 0 Z " fill="#F0752D" transform="translate(557,306)"/>
<path d="M0 0 C0.33 0.66 0.66 1.32 1 2 C3.01669827 3.13350534 3.01669827 3.13350534 5 4 C4.01 4.495 4.01 4.495 3 5 C3.99 5.66 4.98 6.32 6 7 C6 7.66 6 8.32 6 9 C5.34 9 4.68 9 4 9 C3.67 9.99 3.34 10.98 3 12 C1.35 11.67 -0.3 11.34 -2 11 C-1.67 12.65 -1.34 14.3 -1 16 C-3.96687001 17.64826111 -6.65626525 18.44271087 -10 19 C-8.40376856 14.60616294 -6.21975667 10.71004193 -3.875 6.6875 C-3.50246094 6.04232422 -3.12992187 5.39714844 -2.74609375 4.73242188 C-1.83367787 3.15324055 -0.91724491 1.57638136 0 0 Z " fill="#EF6F26" transform="translate(425,255)"/>
<path d="M0 0 C2.08229108 3.12343663 2.23770457 3.53852922 1.9765625 7.01171875 C1.925 7.76904297 1.8734375 8.52636719 1.8203125 9.30664062 C1.75585938 10.09232422 1.69140625 10.87800781 1.625 11.6875 C1.56828125 12.48478516 1.5115625 13.28207031 1.453125 14.10351562 C1.31183972 16.06973581 1.15720094 18.03498824 1 20 C1.433125 19.505 1.86625 19.01 2.3125 18.5 C4 17 4 17 7 17 C7.33 16.34 7.66 15.68 8 15 C8.625 17.375 8.625 17.375 9 20 C8.34 20.66 7.68 21.32 7 22 C7.33 22.66 7.66 23.32 8 24 C5.32521756 25.6627026 3.0004856 26.99983813 0 28 C-0.33 29.98 -0.66 31.96 -1 34 C-1.33 34 -1.66 34 -2 34 C-2.13852709 26.20688938 -1.73633492 18.56889283 -1 10.8125 C-0.90460938 9.76513672 -0.80921875 8.71777344 -0.7109375 7.63867188 C-0.47836539 5.09200731 -0.24133075 2.54584685 0 0 Z " fill="#EE671D" transform="translate(489,230)"/>
<path d="M0 0 C0.99 0.66 1.98 1.32 3 2 C2.195625 2.61875 1.39125 3.2375 0.5625 3.875 C-3.15135247 7.49443249 -2.89481263 12.07531881 -3 17 C-5.35953094 14.64046906 -5.49141413 13.22104383 -6 10 C-6.99 10.66 -7.98 11.32 -9 12 C-10.04999009 8.85002973 -10.26814998 7.96875664 -9 5 C-6.93359375 3.515625 -6.93359375 3.515625 -4.4375 2.25 C-3.61121094 1.82203125 -2.78492188 1.3940625 -1.93359375 0.953125 C-1.29550781 0.63859375 -0.65742188 0.3240625 0 0 Z " fill="#EE6920" transform="translate(469,292)"/>
<path d="M0 0 C0.33 0 0.66 0 1 0 C3.29612756 18.82004556 3.29612756 18.82004556 3 28 C0.31723983 25.59239472 -1.7038277 23.77745228 -3 20.375 C-3 19.59125 -3 18.8075 -3 18 C-2.50886719 17.61457031 -2.01773437 17.22914063 -1.51171875 16.83203125 C0.84880829 13.97134085 0.3160235 10.84195303 0.1875 7.3125 C0.17396484 6.61060547 0.16042969 5.90871094 0.14648438 5.18554688 C0.11120182 3.45670171 0.05739583 1.72825235 0 0 Z " fill="#ED6218" transform="translate(464,244)"/>
<path d="M0 0 C3.24741424 2.78496601 5.16089095 6.39536751 7.25 10.0625 C7.62640625 10.69994141 8.0028125 11.33738281 8.390625 11.99414062 C9.32643643 13.6266499 10.17105723 15.31071511 11 17 C10.67 17.66 10.34 18.32 10 19 C9.34 18.01 8.68 17.02 8 16 C5.41619823 15.74969023 5.41619823 15.74969023 3 16 C3.33 14.35 3.66 12.7 4 11 C1.69 10.67 -0.62 10.34 -3 10 C-2.34 9.67 -1.68 9.34 -1 9 C-1 8.34 -1 7.68 -1 7 C-0.34 7 0.32 7 1 7 C0.67 4.69 0.34 2.38 0 0 Z " fill="#EF681F" transform="translate(516,236)"/>
<path d="M0 0 C0.33 0.66 0.66 1.32 1 2 C0.34 2 -0.32 2 -1 2 C-1 2.66 -1 3.32 -1 4 C-0.01 4 0.98 4 2 4 C3.6875 6 3.6875 6 5 8 C-0.75 10 -0.75 10 -3 10 C-2.67 7.69 -2.34 5.38 -2 3 C-2.99 3.495 -2.99 3.495 -4 4 C-7 4.1875 -7 4.1875 -10 4 C-10.66 3.34 -11.32 2.68 -12 2 C-10.95199219 1.90912109 -10.95199219 1.90912109 -9.8828125 1.81640625 C-8.97273438 1.73261719 -8.06265625 1.64882813 -7.125 1.5625 C-6.22007812 1.48128906 -5.31515625 1.40007812 -4.3828125 1.31640625 C-1.98889139 1.13010715 -1.98889139 1.13010715 0 0 Z M1 6 C0.34 6.66 -0.32 7.32 -1 8 C-0.01 8 0.98 8 2 8 C1.67 7.34 1.34 6.68 1 6 Z " fill="#EE6B21" transform="translate(484,313)"/>
<path d="M0 0 C0.33 0 0.66 0 1 0 C1.268125 1.093125 1.53625 2.18625 1.8125 3.3125 C3.07458639 7.34666393 3.07458639 7.34666393 6 10 C8.28330101 10.36146457 8.28330101 10.36146457 10.6875 10.1875 C11.89986328 10.14689453 11.89986328 10.14689453 13.13671875 10.10546875 C13.75160156 10.07066406 14.36648438 10.03585937 15 10 C14.67 10.66 14.34 11.32 14 12 C11.67843403 12.40729228 9.3431213 12.74438677 7 13 C7 14.32 7 15.64 7 17 C5.35 17 3.7 17 2 17 C2 16.34 2 15.68 2 15 C2.66 14.67 3.32 14.34 4 14 C3.37240135 11.07120629 2.41377341 8.63904371 1 6 C0.01 6.33 -0.98 6.66 -2 7 C-2.33 6.01 -2.66 5.02 -3 4 C-2.34 4 -1.68 4 -1 4 C-0.67 2.68 -0.34 1.36 0 0 Z " fill="#EF6319" transform="translate(467,274)"/>
<path d="M0 0 C0.66 0.99 1.32 1.98 2 3 C1.505 3.45375 1.01 3.9075 0.5 4.375 C-1.22609337 5.87635519 -1.22609337 5.87635519 -1 8 C-0.01 8 0.98 8 2 8 C2 9.65 2 11.3 2 13 C1.401875 12.649375 0.80375 12.29875 0.1875 11.9375 C-2.10813214 10.66695302 -2.10813214 10.66695302 -5 12 C-5 13.65 -5 15.3 -5 17 C-5.66 17.33 -6.32 17.66 -7 18 C-8.17482324 14.52545194 -8.06339535 14.1324858 -6.34765625 10.546875 C-5.59841315 9.27382478 -4.83617987 8.00834874 -4.0625 6.75 C-3.67642578 6.1003125 -3.29035156 5.450625 -2.89257812 4.78125 C-1.93941582 3.18087871 -0.97114076 1.5895258 0 0 Z " fill="#EE661D" transform="translate(414,274)"/>
<path d="M0 0 C5.03985731 0.44469329 7.37634988 2.71343362 11 6 C10.67 6.66 10.34 7.32 10 8 C8.68 6.68 7.36 5.36 6 4 C3.89767656 6.8684413 3.89767656 6.8684413 3 10 C0.525 9.01 0.525 9.01 -2 8 C-1.67 7.05125 -1.34 6.1025 -1 5.125 C0.10159191 2.22937548 0.10159191 2.22937548 0 0 Z M-4 8 C-3.01 8.495 -3.01 8.495 -2 9 C-2.99 9.495 -2.99 9.495 -4 10 C-4 9.34 -4 8.68 -4 8 Z " fill="#EE691F" transform="translate(480,185)"/>
<path d="M0 0 C0.33 0.66 0.66 1.32 1 2 C0.05439935 4.0262871 -0.95377125 6.02379014 -2 8 C-2.68528045 9.65910004 -3.35891863 11.32332564 -4 13 C-3.01 12.34 -2.02 11.68 -1 11 C-1 12.65 -1 14.3 -1 16 C-1.928125 15.938125 -2.85625 15.87625 -3.8125 15.8125 C-6.98395103 15.69105736 -6.98395103 15.69105736 -8.875 17.5 C-9.24625 17.995 -9.6175 18.49 -10 19 C-8.62394084 14.23448987 -6.53221934 10.2751447 -3.875 6.125 C-3.50246094 5.53203125 -3.12992187 4.9390625 -2.74609375 4.328125 C-1.83635 2.8818657 -0.91896202 1.44041954 0 0 Z " fill="#EE661E" transform="translate(452,208)"/>
<path d="M0 0 C1.32 0.33 2.64 0.66 4 1 C3.01 1.99 2.02 2.98 1 4 C1.66 4.33 2.32 4.66 3 5 C3 4.34 3 3.68 3 3 C3.66 3.33 4.32 3.66 5 4 C4.67 4.66 4.34 5.32 4 6 C-3.59 6 -11.18 6 -19 6 C-18.67 5.01 -18.34 4.02 -18 3 C-18 3.66 -18 4.32 -18 5 C-16.2675 4.7525 -16.2675 4.7525 -14.5 4.5 C-10.30092197 3.96761689 -6.22936959 3.92447554 -2 4 C-1.34 2.68 -0.68 1.36 0 0 Z " fill="#F37A32" transform="translate(471,321)"/>
<path d="M0 0 C0.33 0 0.66 0 1 0 C0.73677188 5.92263272 0.26403558 10.50547601 -4 15 C-7.25 15.375 -7.25 15.375 -10 15 C-8.68 14.67 -7.36 14.34 -6 14 C-6 11.69 -6 9.38 -6 7 C-5.34 7 -4.68 7 -4 7 C-3.67 7.66 -3.34 8.32 -3 9 C-1.61666667 7.81666667 -1.61666667 7.81666667 -1.5 4.5 C-1 1 -1 1 0 0 Z " fill="#EF671C" transform="translate(556,309)"/>
<path d="M0 0 C0.33 0 0.66 0 1 0 C1.22384382 1.72722728 1.42839969 3.45696007 1.625 5.1875 C1.74101562 6.15042969 1.85703125 7.11335938 1.9765625 8.10546875 C2.00194942 11.24075323 1.34359283 13.19486535 0 16 C0.99 16.33 1.98 16.66 3 17 C2.01 17.99 1.02 18.98 0 20 C-1.32 19.34 -2.64 18.68 -4 18 C-3.69320313 17.48953125 -3.38640625 16.9790625 -3.0703125 16.453125 C-1.67261715 13.24964807 -1.32368955 10.21131939 -0.875 6.75 C-0.70742188 5.48671875 -0.53984375 4.2234375 -0.3671875 2.921875 C-0.24601562 1.95765625 -0.12484375 0.9934375 0 0 Z " fill="#EF6C24" transform="translate(486,265)"/>
<path d="M0 0 C2.61500768 2.36595933 4.38999603 4.86049226 6 8 C5.67 8.66 5.34 9.32 5 10 C4.01 9.01 3.02 8.02 2 7 C1.01 7.495 1.01 7.495 0 8 C-0.66 7.67 -1.32 7.34 -2 7 C-2 7.66 -2 8.32 -2 9 C-2.99 8.67 -3.98 8.34 -5 8 C-4.01 6.35 -3.02 4.7 -2 3 C-1.34 3.33 -0.68 3.66 0 4 C0 2.68 0 1.36 0 0 Z " fill="#EE681F" transform="translate(491,193)"/>
<path d="M0 0 C2.48982535 2.27745789 4.10368997 4.62335238 5.75 7.5625 C6.19859375 8.34753906 6.6471875 9.13257813 7.109375 9.94140625 C7.40328125 10.62074219 7.6971875 11.30007812 8 12 C7.67 12.66 7.34 13.32 7 14 C6.608125 13.525625 6.21625 13.05125 5.8125 12.5625 C3.59191626 10.64820367 1.86624291 10.38733012 -1 10 C-0.67 9.01 -0.34 8.02 0 7 C0.66 7 1.32 7 2 7 C1.34 4.69 0.68 2.38 0 0 Z " fill="#EE651B" transform="translate(505,217)"/>
<path d="M0 0 C2.97526665 2.55022856 4.50122302 5.40293526 6 9 C5.67 9.99 5.34 10.98 5 12 C5 11.34 5 10.68 5 10 C4.34 10 3.68 10 3 10 C2.67 10.66 2.34 11.32 2 12 C2 11.01 2 10.02 2 9 C1.01 9 0.02 9 -1 9 C-1 8.34 -1 7.68 -1 7 C-0.34 7 0.32 7 1 7 C0.67 4.69 0.34 2.38 0 0 Z " fill="#ED651C" transform="translate(550,295)"/>
<path d="M0 0 C3.29078593 2.79716804 5.06305458 6.19528578 7 10 C6.67 10.66 6.34 11.32 6 12 C3.69 11.34 1.38 10.68 -1 10 C-0.649375 9.0925 -0.29875 8.185 0.0625 7.25 C0.96468779 4.12241564 1.13381507 2.94791919 0 0 Z " fill="#ED641B" transform="translate(543,283)"/>
<path d="M0 0 C0.99 0.66 1.98 1.32 3 2 C3.66 1.67 4.32 1.34 5 1 C6.54023996 0.93049459 8.08334988 0.91547643 9.625 0.9375 C10.85089844 0.95103516 10.85089844 0.95103516 12.1015625 0.96484375 C13.04128906 0.98224609 13.04128906 0.98224609 14 1 C14 1.33 14 1.66 14 2 C13.02160156 2.14695313 13.02160156 2.14695313 12.0234375 2.296875 C6.36568892 3.26486738 2.51577961 4.43491083 -2 8 C-2 4.23312136 -1.76462683 3.08809695 0 0 Z " fill="#ED5E13" transform="translate(467,220)"/>
<path d="M0 0 C2.13093906 1.06546953 3.36587557 2.29159719 5 4 C0.25 7 0.25 7 -2 7 C-2.66 8.32 -3.32 9.64 -4 11 C-3.39301257 6.87248551 -1.96189209 3.6678852 0 0 Z " fill="#F17831" transform="translate(402,297)"/>
<path d="M0 0 C2.72426311 2.35277269 3.8141763 4.62496331 5 8 C4.01 8.33 3.02 8.66 2 9 C1.67 8.67 1.34 8.34 1 8 C0.34 8.66 -0.32 9.32 -1 10 C-1 6.58900832 -0.50854594 3.36911686 0 0 Z " fill="#EE6820" transform="translate(536,271)"/>
<path d="M0 0 C1.98 0 3.96 0 6 0 C5.6875 1.9375 5.6875 1.9375 5 4 C4.01 4.33 3.02 4.66 2 5 C1.67 6.98 1.34 8.96 1 11 C0.67 11 0.34 11 0 11 C0 7.37 0 3.74 0 0 Z " fill="#ED651C" transform="translate(487,253)"/>
<path d="M0 0 C1.21994269 3.65982807 0.49026663 4.58115302 -1 8 C-1 8.66 -1 9.32 -1 10 C-1.99 10.33 -2.98 10.66 -4 11 C-5.66710346 12.49985609 -5.66710346 12.49985609 -7 14 C-5.53967505 8.68972746 -3.01679014 4.53669968 0 0 Z " fill="#EF6118" transform="translate(441,227)"/>
<path d="M0 0 C1.98 1.65 3.96 3.3 6 5 C5.01 5.495 5.01 5.495 4 6 C3.67 6.99 3.34 7.98 3 9 C2.34 8.01 1.68 7.02 1 6 C1.33 5.34 1.66 4.68 2 4 C1.01 3.67 0.02 3.34 -1 3 C-0.67 2.01 -0.34 1.02 0 0 Z " fill="#EE651D" transform="translate(466,309)"/>
<path d="M0 0 C0.33 0 0.66 0 1 0 C1.24915939 1.76813112 1.47366632 3.53974982 1.6875 5.3125 C1.81511719 6.29863281 1.94273437 7.28476562 2.07421875 8.30078125 C2 11 2 11 -1 14 C-0.67 9.38 -0.34 4.76 0 0 Z " fill="#ED5B10" transform="translate(486,265)"/>
<path d="M0 0 C0.66 0.33 1.32 0.66 2 1 C0.515 3.475 0.515 3.475 -1 6 C-2.32 5.34 -3.64 4.68 -5 4 C-5 3.01 -5 2.02 -5 1 C-4.34 1.33 -3.68 1.66 -3 2 C-2.01 1.34 -1.02 0.68 0 0 Z " fill="#EE6519" transform="translate(406,319)"/>
<path d="M0 0 C2.50037734 2.17424117 3.43628586 3.73045798 4 7 C2.02 6.34 0.04 5.68 -2 5 C-1.34 3.35 -0.68 1.7 0 0 Z " fill="#EE671C" transform="translate(497,203)"/>
<path d="M0 0 C0.33 0 0.66 0 1 0 C1 2.64 1 5.28 1 8 C-0.32 7.67 -1.64 7.34 -3 7 C-1.125 2.25 -1.125 2.25 0 0 Z " fill="#ED641A" transform="translate(422,260)"/>
</svg>
